<svg width="53" height="53" viewBox="0 0 53 53" fill="none" xmlns="http://www.w3.org/2000/svg">
<path d="M43.0336 21.6105L37.4744 17.5202V12.6412C37.4744 11.8762 36.8536 11.2577 36.0898 11.2577H33.8401C33.0751 11.2577 32.4556 11.8772 32.4556 12.6412V13.8266L28.2168 10.7081C27.2972 10.03 25.7914 10.03 24.8718 10.7081L10.0553 21.6105C9.1354 22.2878 8.93731 23.5954 9.61438 24.5166L10.0238 25.0725C10.6996 25.9934 12.0073 26.1928 12.9259 25.5155L24.8718 16.7217C25.7914 16.0444 27.2972 16.0444 28.2168 16.7217L40.1617 25.5155C41.0816 26.1928 42.3879 25.9924 43.0637 25.0725L43.4745 24.5166C44.1503 23.5954 43.9522 22.2878 43.0336 21.6105Z" fill="black"/>
<mask id="mask0_236_1032" style="mask-type:luminance" maskUnits="userSpaceOnUse" x="12" y="18" width="29" height="25">
<path d="M12.7593 18.0593H40.3062V42.9104H12.7593V18.0593Z" fill="white"/>
</mask>
<g mask="url(#mask0_236_1032)">
<path d="M38.6008 26.2804L28.2137 18.6016C27.2951 17.9223 25.7938 17.9223 24.8752 18.6016L14.4878 26.2804C13.5692 26.9598 12.8175 27.9536 12.8175 28.4918V39.625C12.8175 41.4323 14.3664 42.8984 16.2785 42.8984H22.6218V33.0504C22.6218 32.2897 23.2447 31.6679 24.0051 31.6679H29.0812C29.8419 31.6679 30.4647 32.2897 30.4647 33.0504V42.8984H36.8091C38.7199 42.8984 40.2681 41.4323 40.2681 39.625V28.4918C40.2691 27.9536 39.5194 26.9598 38.6008 26.2804Z" fill="black"/>
</g>
</svg>
