<svg width="49" height="49" viewBox="0 0 49 49" fill="none" xmlns="http://www.w3.org/2000/svg">
<g clip-path="url(#clip0_79_385)">
<path d="M24.3466 0.369141C14.3394 0.369141 11.4127 0.379464 10.8438 0.426659C8.79011 0.597371 7.5122 0.920729 6.12 1.6139C5.04709 2.14668 4.20093 2.76427 3.36583 3.63C1.84496 5.20881 0.923213 7.15117 0.589541 9.46002C0.427315 10.5809 0.380121 10.8095 0.370535 16.5348C0.366848 18.4432 0.370535 20.9549 0.370535 24.3238C0.370535 34.3231 0.381596 37.247 0.429527 37.8148C0.595441 39.8132 0.908833 41.0705 1.57249 42.4458C2.84081 45.0784 5.26315 47.0546 8.11687 47.7921C9.10498 48.0465 10.1963 48.1866 11.5974 48.253C12.191 48.2788 18.2413 48.2972 24.2953 48.2972C30.3493 48.2972 36.4033 48.2898 36.9822 48.2603C38.6045 48.184 39.5465 48.0575 40.588 47.7884C43.4602 47.0473 45.8383 45.1005 47.1324 42.431C47.7832 41.0889 48.1132 39.7837 48.2625 37.8897C48.2949 37.4767 48.3086 30.8927 48.3086 24.3175C48.3086 17.7412 48.2938 11.1694 48.2614 10.7564C48.1102 8.83174 47.7802 7.53757 47.1085 6.16966C46.5573 5.0499 45.9452 4.21366 45.0567 3.35863C43.4709 1.84397 41.5315 0.922203 39.2205 0.588891C38.1008 0.427028 37.8778 0.379096 32.1482 0.369141H24.3466Z" fill="url(#paint0_radial_79_385)"/>
<path d="M24.3466 0.369141C14.3394 0.369141 11.4127 0.379464 10.8438 0.426659C8.79011 0.597371 7.5122 0.920729 6.12 1.6139C5.04709 2.14668 4.20093 2.76427 3.36583 3.63C1.84496 5.20881 0.923213 7.15117 0.589541 9.46002C0.427315 10.5809 0.380121 10.8095 0.370535 16.5348C0.366848 18.4432 0.370535 20.9549 0.370535 24.3238C0.370535 34.3231 0.381596 37.247 0.429527 37.8148C0.595441 39.8132 0.908833 41.0705 1.57249 42.4458C2.84081 45.0784 5.26315 47.0546 8.11687 47.7921C9.10498 48.0465 10.1963 48.1866 11.5974 48.253C12.191 48.2788 18.2413 48.2972 24.2953 48.2972C30.3493 48.2972 36.4033 48.2898 36.9822 48.2603C38.6045 48.184 39.5465 48.0575 40.588 47.7884C43.4602 47.0473 45.8383 45.1005 47.1324 42.431C47.7832 41.0889 48.1132 39.7837 48.2625 37.8897C48.2949 37.4767 48.3086 30.8927 48.3086 24.3175C48.3086 17.7412 48.2938 11.1694 48.2614 10.7564C48.1102 8.83174 47.7802 7.53757 47.1085 6.16966C46.5573 5.0499 45.9452 4.21366 45.0567 3.35863C43.4709 1.84397 41.5315 0.922203 39.2205 0.588891C38.1008 0.427028 37.8778 0.379096 32.1482 0.369141H24.3466Z" fill="url(#paint1_radial_79_385)"/>
<path d="M24.3355 6.63672C19.5292 6.63672 18.926 6.65774 17.0383 6.74364C15.1542 6.82992 13.8682 7.12821 12.7429 7.56586C11.579 8.0179 10.5916 8.62258 9.6079 9.60667C8.62348 10.5904 8.01881 11.5778 7.56531 12.7414C7.12656 13.8671 6.82792 15.1535 6.74312 17.0369C6.65869 18.9247 6.63657 19.5282 6.63657 24.3347C6.63657 29.1412 6.65795 29.7426 6.74349 31.6304C6.83013 33.5145 7.12841 34.8005 7.56568 35.9258C8.01808 37.0898 8.62274 38.0772 9.60679 39.061C10.5901 40.0454 11.5775 40.6516 12.7407 41.1036C13.8667 41.5413 15.1531 41.8395 17.0368 41.9258C18.9245 42.0117 19.5273 42.0327 24.3333 42.0327C29.14 42.0327 29.7414 42.0117 31.6291 41.9258C33.5131 41.8395 34.8006 41.5413 35.9266 41.1036C37.0902 40.6516 38.0761 40.0454 39.0594 39.061C40.0439 38.0772 40.6485 37.0898 41.102 35.9262C41.5371 34.8005 41.8357 33.5141 41.9242 31.6307C42.009 29.7429 42.0311 29.1412 42.0311 24.3347C42.0311 19.5282 42.009 18.925 41.9242 17.0373C41.8357 15.1531 41.5371 13.8671 41.102 12.7418C40.6485 11.5778 40.0439 10.5904 39.0594 9.60667C38.075 8.62221 37.0906 8.01753 35.9255 7.56586C34.7973 7.12821 33.5105 6.82992 31.6265 6.74364C29.7388 6.65774 29.1378 6.63672 24.33 6.63672H24.3355ZM22.7479 9.82605C23.2191 9.82531 23.7449 9.82605 24.3355 9.82605C29.0607 9.82605 29.6208 9.84301 31.4868 9.92781C33.2123 10.0067 34.1488 10.295 34.7726 10.5373C35.5985 10.8581 36.1873 11.2415 36.8063 11.8609C37.4257 12.4804 37.8092 13.0703 38.1307 13.8962C38.3729 14.5193 38.6616 15.4559 38.7402 17.1814C38.825 19.0471 38.8434 19.6075 38.8434 24.3307C38.8434 29.0538 38.825 29.6143 38.7402 31.4799C38.6613 33.2055 38.3729 34.142 38.1307 34.7651C37.8099 35.591 37.4257 36.1791 36.8063 36.7982C36.1869 37.4176 35.5989 37.8011 34.7726 38.1218C34.1495 38.3652 33.2123 38.6528 31.4868 38.7317C29.6212 38.8165 29.0607 38.8349 24.3355 38.8349C19.6099 38.8349 19.0499 38.8165 17.1843 38.7317C15.4588 38.6521 14.5223 38.3637 13.8981 38.1215C13.0722 37.8007 12.4823 37.4172 11.8629 36.7978C11.2434 36.1784 10.86 35.5899 10.5385 34.7637C10.2963 34.1405 10.0076 33.204 9.92903 31.4785C9.84423 29.6128 9.82727 29.0524 9.82727 24.3263C9.82727 19.6001 9.84423 19.0427 9.92903 17.177C10.0079 15.4514 10.2963 14.5149 10.5385 13.8911C10.8593 13.0652 11.2434 12.4752 11.8629 11.8558C12.4823 11.2364 13.0722 10.8529 13.8981 10.5314C14.5219 10.288 15.4588 10.0004 17.1843 9.92118C18.8169 9.84743 19.4495 9.82531 22.7479 9.82162V9.82605ZM33.7823 12.7647C32.6098 12.7647 31.6586 13.7148 31.6586 14.8877C31.6586 16.0602 32.6098 17.0114 33.7823 17.0114C34.9547 17.0114 35.906 16.0602 35.906 14.8877C35.906 13.7152 34.9547 12.7639 33.7823 12.7639V12.7647ZM24.3355 15.2461C19.3164 15.2461 15.2471 19.3155 15.2471 24.3347C15.2471 29.354 19.3164 33.4216 24.3355 33.4216C29.3546 33.4216 33.4224 29.354 33.4224 24.3347C33.4224 19.3155 29.3546 15.2461 24.3355 15.2461ZM24.3355 18.4354C27.5933 18.4354 30.2347 21.0765 30.2347 24.3347C30.2347 27.5926 27.5933 30.2341 24.3355 30.2341C21.0773 30.2341 18.4364 27.5926 18.4364 24.3347C18.4364 21.0765 21.0773 18.4354 24.3355 18.4354Z" fill="white"/>
</g>
<defs>
<radialGradient id="paint0_radial_79_385" cx="0" cy="0" r="1" gradientUnits="userSpaceOnUse" gradientTransform="translate(13.1029 51.9887) rotate(-90) scale(47.5002 44.1897)">
<stop stop-color="#FFDD55"/>
<stop offset="0.1" stop-color="#FFDD55"/>
<stop offset="0.5" stop-color="#FF543E"/>
<stop offset="1" stop-color="#C837AB"/>
</radialGradient>
<radialGradient id="paint1_radial_79_385" cx="0" cy="0" r="1" gradientUnits="userSpaceOnUse" gradientTransform="translate(-7.66125 3.8218) rotate(78.678) scale(21.233 87.5429)">
<stop stop-color="#3771C8"/>
<stop offset="0.128" stop-color="#3771C8"/>
<stop offset="1" stop-color="#6600FF" stop-opacity="0"/>
</radialGradient>
<clipPath id="clip0_79_385">
<rect width="48.6695" height="48.6695" fill="white"/>
</clipPath>
</defs>
</svg>
