<svg width="46" height="45" viewBox="0 0 46 45" fill="none" xmlns="http://www.w3.org/2000/svg">
<path fill-rule="evenodd" clip-rule="evenodd" d="M5.11111 44.1753H40.8889C43.7117 44.1753 46 41.9778 46 39.2669V4.90837C46 2.19755 43.7117 0 40.8889 0H5.11111C2.28832 0 0 2.19755 0 4.90837V39.2669C0 41.9778 2.28832 44.1753 5.11111 44.1753Z" fill="#007EBB"/>
<path fill-rule="evenodd" clip-rule="evenodd" d="M39.6109 38.0401H32.7848V26.8749C32.7848 23.8137 31.5735 22.103 29.0505 22.103C26.3058 22.103 24.8718 23.8832 24.8718 26.8749V38.0401H18.2933V16.7705H24.8718V19.6356C24.8718 19.6356 26.8498 16.1207 31.5497 16.1207C36.2476 16.1207 39.6109 18.8757 39.6109 24.5735V38.0401ZM10.4452 13.9855C8.20443 13.9855 6.38867 12.228 6.38867 10.0606C6.38867 7.89316 8.20443 6.13574 10.4452 6.13574C12.686 6.13574 14.5006 7.89316 14.5006 10.0606C14.5006 12.228 12.686 13.9855 10.4452 13.9855ZM7.04836 38.0401H13.908V16.7705H7.04836V38.0401Z" fill="white"/>
</svg>
