<svg width="45" height="40" viewBox="0 0 45 40" fill="none" xmlns="http://www.w3.org/2000/svg">
<rect x="0.477905" y="0.0473633" width="44.4849" height="39.4763" rx="8" fill="white"/>
<path d="M13.3752 14.8098H12.4274L16.2187 11.4453L20.0101 14.8098H19.0622V17.3331H17.1666V14.8098H15.2709V17.3331H13.3752V14.8098ZM23.8014 18.9312L25.0336 19.8564H26.6449V17.3331H28.5405V19.8564H31.384V16.492H32.3319L27.5927 12.2864L22.8536 16.492H23.8014V18.9312ZM24.5597 28.2676C24.0857 27.5106 23.8014 26.6695 23.8014 25.7442C23.8014 24.3985 24.3701 23.1368 25.4127 22.2957L20.0101 18.1742L13.3752 23.2209H15.2709V28.2676H18.1144V24.062H21.9057V28.2676H24.5597ZM28.5405 22.3798V24.9031H25.6971V26.5854H28.5405V29.1087H30.4362V26.5854H33.2797V24.9031H30.4362V22.3798H28.5405Z" fill="#DC602A"/>
</svg>
