<svg width="50" height="45" viewBox="0 0 50 45" fill="none" xmlns="http://www.w3.org/2000/svg">
<rect x="0.119141" y="0.0366211" width="49.8882" height="44.2712" rx="8" fill="white"/>
<path d="M32.6534 17.473H24.1497V24.0759H15.646V15.5864H13.5201V29.7356H15.646V26.9058H34.7793V29.7356H36.9052V21.2461C36.9052 20.2454 36.4572 19.2857 35.6599 18.5781C34.8625 17.8705 33.781 17.473 32.6534 17.473ZM19.8978 23.1327C20.7436 23.1327 21.5547 22.8345 22.1527 22.3038C22.7507 21.7731 23.0867 21.0533 23.0867 20.3028C23.0867 19.5523 22.7507 18.8325 22.1527 18.3018C21.5547 17.7711 20.7436 17.473 19.8978 17.473C19.0521 17.473 18.241 17.7711 17.643 18.3018C17.0449 18.8325 16.709 19.5523 16.709 20.3028C16.709 21.0533 17.0449 21.7731 17.643 22.3038C18.241 22.8345 19.0521 23.1327 19.8978 23.1327Z" fill="#DC602A"/>
</svg>
