<svg width="50" height="45" viewBox="0 0 50 45" fill="none" xmlns="http://www.w3.org/2000/svg">
<rect width="49.8882" height="44.2712" rx="8" fill="white"/>
<path d="M13.2516 32.5119H34.2982V30.2061H13.2516M34.2982 17.5242H31.9597V14.0656H34.2982M34.2982 11.7598H15.5901V23.2887C15.5901 24.5118 16.0828 25.6848 16.9599 26.5496C17.837 27.4145 19.0267 27.9003 20.2671 27.9003H27.2826C28.5231 27.9003 29.7127 27.4145 30.5898 26.5496C31.4669 25.6848 31.9597 24.5118 31.9597 23.2887V19.83H34.2982C34.9184 19.83 35.5132 19.5871 35.9517 19.1547C36.3903 18.7223 36.6367 18.1358 36.6367 17.5242V14.0656C36.6367 12.7858 35.5843 11.7598 34.2982 11.7598Z" fill="#DC602A"/>
</svg>
